<svg xmlns="http://www.w3.org/2000/svg" xmlns:xlink="http://www.w3.org/1999/xlink" width="500" zoomAndPan="magnify" viewBox="0 0 375 374.999991" height="500" preserveAspectRatio="xMidYMid meet" version="1.0"><defs><g/><clipPath id="e66184636a"><path d="M 167 117 L 220 117 L 220 261 L 167 261 Z M 167 117 " clip-rule="nonzero"/></clipPath><clipPath id="ca1b3ae040"><path d="M 138.136719 242.390625 L 216.15625 114.277344 L 246.265625 132.609375 L 168.246094 260.722656 Z M 138.136719 242.390625 " clip-rule="nonzero"/></clipPath><clipPath id="f269acee1a"><path d="M 138.136719 242.390625 L 216.15625 114.277344 L 246.265625 132.609375 L 168.246094 260.722656 Z M 138.136719 242.390625 " clip-rule="nonzero"/></clipPath><clipPath id="1dbb84b8e3"><path d="M 138.136719 242.390625 L 216.15625 114.277344 L 246.265625 132.609375 L 168.246094 260.722656 Z M 138.136719 242.390625 " clip-rule="nonzero"/></clipPath></defs><rect x="-37.5" width="450" fill="#ffffff" y="-37.499999" height="449.999989" fill-opacity="1"/><rect x="-37.5" width="450" fill="#ffffff" y="-37.499999" height="449.999989" fill-opacity="1"/><g fill="#000000" fill-opacity="1"><g transform="translate(95.232421, 212.249986)"><g><path d="M 79.328125 -60.9375 L 63.078125 -60.9375 L 41.140625 -11.28125 L 17.578125 -60.9375 L 3.046875 -60.9375 L 3.046875 -58.296875 L 11.171875 -58.296875 L 11.171875 -2.640625 L 3.046875 -2.640625 L 3.046875 0 L 23.359375 0 C 23.359375 -1.488281 22.816406 -2.335938 21.734375 -2.546875 C 21.398438 -2.609375 21.0625 -2.640625 20.71875 -2.640625 L 15.234375 -2.640625 L 15.234375 -46.3125 L 37.484375 0.515625 L 39.609375 0.515625 L 63.078125 -51.796875 L 63.078125 -2.640625 L 54.953125 -2.640625 L 54.953125 0 L 79.328125 0 C 79.328125 -1.488281 78.785156 -2.335938 77.703125 -2.546875 C 77.359375 -2.609375 77.019531 -2.640625 76.6875 -2.640625 L 71.203125 -2.640625 L 71.203125 -58.296875 L 79.328125 -58.296875 Z M 79.328125 -60.9375 "/></g></g></g><g fill="#000000" fill-opacity="1"><g transform="translate(177.593415, 212.249986)"><g/></g></g><g fill="#000000" fill-opacity="1"><g transform="translate(197.396614, 212.249986)"><g><path d="M 79.328125 -60.9375 L 63.078125 -60.9375 L 41.140625 -11.28125 L 17.578125 -60.9375 L 3.046875 -60.9375 L 3.046875 -58.296875 L 11.171875 -58.296875 L 11.171875 -2.640625 L 3.046875 -2.640625 L 3.046875 0 L 23.359375 0 C 23.359375 -1.488281 22.816406 -2.335938 21.734375 -2.546875 C 21.398438 -2.609375 21.0625 -2.640625 20.71875 -2.640625 L 15.234375 -2.640625 L 15.234375 -46.3125 L 37.484375 0.515625 L 39.609375 0.515625 L 63.078125 -51.796875 L 63.078125 -2.640625 L 54.953125 -2.640625 L 54.953125 0 L 79.328125 0 C 79.328125 -1.488281 78.785156 -2.335938 77.703125 -2.546875 C 77.359375 -2.609375 77.019531 -2.640625 76.6875 -2.640625 L 71.203125 -2.640625 L 71.203125 -58.296875 L 79.328125 -58.296875 Z M 79.328125 -60.9375 "/></g></g></g><g clip-path="url(#e66184636a)"><g clip-path="url(#ca1b3ae040)"><g clip-path="url(#f269acee1a)"><g clip-path="url(#1dbb84b8e3)"><path fill="#000000" d="M 219.9375 117.355469 C 215.894531 121.980469 212.621094 127.980469 209.359375 133.417969 C 201.222656 147.355469 194.167969 161.824219 188.191406 176.816406 C 176.441406 204.078125 169.03125 231.820312 168.636719 260.15625 C 163.625 231.582031 173.585938 203.175781 184.34375 177.054688 C 191.054688 161.417969 197.265625 145.269531 207.476562 131.503906 C 211.238281 126.472656 215.003906 121.316406 219.9375 117.355469 Z M 219.9375 117.355469 " fill-opacity="1" fill-rule="nonzero"/></g></g></g></g></svg>